<?xml version="1.0" encoding="UTF-8"?>
<svg id="Layer_1" data-name="Layer 1" xmlns="http://www.w3.org/2000/svg" viewBox="0 0 300 300">
  <defs>
    <style>
      .cls-1 {
        fill: #e0225d;
        stroke-width: 0px;
      }
    </style>
  </defs>
  <rect class="cls-1" x="144.52" y="164.31" width="51.85" height="51.85" rx="6.36" ry="6.36" transform="translate(-84.59 176.24) rotate(-45)"/>
  <path class="cls-1" d="M102.05,202.04V52.29s-.04-.06-.07-.09l-18.21-18.33c-3.14-3.16-8.24-3.16-11.38,0l-18.21,18.33s-.04.06-.07.09v145.73c-4.04,27.2-25.7,48.36-52.53,50.53,10.58,12.24,25.94,19.95,43.04,19.95,31.92,0,57.79-26.83,57.79-59.93,0-2.21-.13-4.38-.35-6.52Z"/>
  <path class="cls-1" d="M298.07,202.04V52.29s-.04-.06-.07-.09l-18.21-18.33c-3.14-3.16-8.24-3.16-11.38,0l-18.21,18.33s-.04.06-.07.09v145.73c-4.04,27.2-25.7,48.36-52.53,50.53,10.58,12.24,25.94,19.95,43.04,19.95,31.92,0,57.79-26.83,57.79-59.93,0-2.21-.13-4.38-.35-6.52Z"/>
</svg>